<svg width="630" height="227" viewBox="0 0 630 227" fill="none" xmlns="http://www.w3.org/2000/svg">
<path d="M607.756 205.107V184.66H629.755V205.107H607.756Z" fill="#0B332C"/>
<path d="M571.075 206.66C564.605 206.66 558.739 205.236 553.476 202.389C548.3 199.542 544.159 195.574 541.053 190.484C538.033 185.393 536.523 179.57 536.523 173.013C536.523 166.37 538.033 160.547 541.053 155.543C544.159 150.453 548.343 146.485 553.605 143.638C558.868 140.791 564.691 139.367 571.075 139.367C577.546 139.367 583.369 140.791 588.546 143.638C593.808 146.485 597.949 150.453 600.969 155.543C604.075 160.547 605.628 166.37 605.628 173.013C605.628 179.57 604.075 185.393 600.969 190.484C597.949 195.574 593.808 199.542 588.546 202.389C583.369 205.236 577.546 206.66 571.075 206.66ZM571.075 191.26C574.009 191.26 576.683 190.57 579.099 189.189C581.601 187.809 583.585 185.782 585.052 183.107C586.518 180.433 587.252 177.068 587.252 173.013C587.252 168.959 586.475 165.594 584.922 162.92C583.456 160.245 581.514 158.218 579.099 156.837C576.683 155.457 574.052 154.767 571.205 154.767C568.272 154.767 565.554 155.457 563.052 156.837C560.637 158.218 558.652 160.245 557.099 162.92C555.633 165.594 554.899 168.959 554.899 173.013C554.899 177.068 555.633 180.433 557.099 183.107C558.566 185.782 560.507 187.809 562.923 189.189C565.425 190.57 568.142 191.26 571.075 191.26Z" fill="#0B332C"/>
<path d="M513.758 205.104V140.917H531.616V205.104H513.758ZM514.405 130.565V113.871H531.099V130.565H514.405Z" fill="#0B332C"/>
<path d="M468.874 206.657C462.835 206.657 457.4 205.19 452.569 202.257C447.824 199.323 444.071 195.312 441.31 190.222C438.636 185.045 437.299 179.265 437.299 172.881C437.299 166.411 438.636 160.674 441.31 155.67C444.071 150.58 447.824 146.611 452.569 143.764C457.4 140.831 462.835 139.364 468.874 139.364C473.619 139.364 477.717 140.227 481.168 141.952C484.705 143.678 487.552 146.137 489.709 149.329V111.93H507.568V205.104H489.709V196.175C487.725 199.022 485.051 201.48 481.686 203.551C478.408 205.621 474.137 206.657 468.874 206.657ZM472.886 191.128C476.251 191.128 479.227 190.351 481.815 188.798C484.49 187.159 486.56 185.002 488.027 182.328C489.494 179.567 490.227 176.461 490.227 173.01C490.227 169.473 489.494 166.367 488.027 163.693C486.56 160.932 484.49 158.776 481.815 157.223C479.227 155.67 476.251 154.893 472.886 154.893C469.522 154.893 466.502 155.67 463.828 157.223C461.239 158.776 459.169 160.889 457.616 163.564C456.149 166.238 455.416 169.344 455.416 172.881C455.416 176.418 456.149 179.567 457.616 182.328C459.169 185.002 461.239 187.159 463.828 188.798C466.502 190.351 469.522 191.128 472.886 191.128Z" fill="#0B332C"/>
<path d="M395.971 206.657C388.552 206.657 382.729 204.112 378.501 199.022C374.274 193.846 372.16 186.47 372.16 176.894V140.918H389.889V175.211C389.889 180.474 390.881 184.529 392.866 187.376C394.936 190.223 397.956 191.646 401.924 191.646C406.324 191.646 409.689 190.093 412.018 186.987C414.434 183.882 415.641 179.568 415.641 174.047V140.918H433.5V205.105H415.641V195.917C413.743 199.195 411.155 201.826 407.877 203.81C404.685 205.708 400.716 206.657 395.971 206.657Z" fill="#0B332C"/>
<path d="M355.089 205.106C350.689 205.106 346.936 204.588 343.83 203.553C340.811 202.518 338.525 200.533 336.972 197.6C335.419 194.667 334.642 190.396 334.642 184.789V155.801H323.643V140.919H334.642V123.449H352.501V140.919H389.918V155.801H352.501V182.589C352.501 184.659 352.716 186.212 353.148 187.248C353.579 188.283 354.356 189.016 355.477 189.448C356.685 189.793 358.324 189.965 360.395 189.965H368.03V205.106H355.089Z" fill="#0B332C"/>
<path d="M296.011 206.66C287.47 206.66 280.438 204.632 274.917 200.577C269.396 196.523 266.29 191.217 265.6 184.66H283.846C284.45 187.248 285.917 189.319 288.246 190.872C290.575 192.338 293.379 193.072 296.658 193.072C300.281 193.072 302.999 192.468 304.81 191.26C306.708 189.966 307.657 188.37 307.657 186.472C307.657 185.005 306.967 183.841 305.587 182.978C304.206 182.029 301.834 181.339 298.469 180.907C297.262 180.735 295.579 180.476 293.422 180.131C291.352 179.786 289.67 179.484 288.375 179.225C284.752 178.535 281.431 177.413 278.411 175.86C275.478 174.307 273.148 172.237 271.423 169.649C269.698 166.974 268.835 163.739 268.835 159.943C268.835 154.163 270.992 149.289 275.305 145.32C279.619 141.351 285.917 139.367 294.199 139.367C302.654 139.367 309.297 141.222 314.128 144.932C318.959 148.555 321.677 153.688 322.28 160.331H305.069C304.81 157.916 303.646 156.104 301.575 154.896C299.505 153.688 297.089 153.084 294.328 153.084C291.05 153.084 288.548 153.645 286.823 154.767C285.183 155.888 284.364 157.312 284.364 159.037C284.364 161.798 287.081 163.653 292.517 164.602C293.293 164.688 294.371 164.861 295.752 165.119C297.218 165.292 298.685 165.508 300.152 165.766C301.705 165.939 302.912 166.112 303.775 166.284C306.277 166.629 308.736 167.233 311.151 168.096C313.653 168.872 315.853 169.951 317.751 171.331C319.735 172.711 321.288 174.523 322.41 176.766C323.531 178.923 324.092 181.641 324.092 184.919C324.092 189.233 323.014 193.029 320.857 196.307C318.7 199.585 315.551 202.13 311.41 203.942C307.269 205.754 302.136 206.66 296.011 206.66Z" fill="#0B332C"/>
<path d="M549.5 99.1067V34.9201H567.358V44.3669C569.429 41.0023 572.233 38.3278 575.77 36.3436C579.393 34.3593 583.621 33.3672 588.452 33.3672C596.562 33.3672 602.773 35.9554 607.087 41.1317C611.4 46.2218 613.557 53.5549 613.557 63.1311V99.1067H595.699V64.8134C595.699 59.5508 594.62 55.496 592.464 52.649C590.393 49.8021 587.028 48.3786 582.37 48.3786C578.056 48.3786 574.476 49.9315 571.629 53.0373C568.782 56.1431 567.358 60.4567 567.358 65.9781V99.1067H549.5Z" fill="#0B332C"/>
<path d="M510.009 100.66C503.539 100.66 497.672 99.2361 492.41 96.3891C487.233 93.5421 483.092 89.5736 479.986 84.4835C476.967 79.3934 475.457 73.5701 475.457 67.0134C475.457 60.3704 476.967 54.547 479.986 49.5432C483.092 44.4532 487.276 40.4846 492.539 37.6377C497.802 34.7907 503.625 33.3672 510.009 33.3672C516.479 33.3672 522.303 34.7907 527.479 37.6377C532.742 40.4846 536.883 44.4532 539.902 49.5432C543.008 54.547 544.561 60.3704 544.561 67.0134C544.561 73.5701 543.008 79.3934 539.902 84.4835C536.883 89.5736 532.742 93.5421 527.479 96.3891C522.303 99.2361 516.479 100.66 510.009 100.66ZM510.009 85.26C512.942 85.26 515.617 84.5698 518.032 83.1894C520.534 81.8091 522.519 79.7817 523.985 77.1072C525.452 74.4328 526.185 71.0682 526.185 67.0134C526.185 62.9586 525.409 59.594 523.856 56.9195C522.389 54.2451 520.448 52.2177 518.032 50.8373C515.617 49.457 512.985 48.7668 510.138 48.7668C507.205 48.7668 504.488 49.457 501.986 50.8373C499.57 52.2177 497.586 54.2451 496.033 56.9195C494.566 59.594 493.833 62.9586 493.833 67.0134C493.833 71.0682 494.566 74.4328 496.033 77.1072C497.5 79.7817 499.441 81.8091 501.856 83.1894C504.358 84.5698 507.076 85.26 510.009 85.26Z" fill="#0B332C"/>
<path d="M443.979 100.66C435.438 100.66 428.407 98.6322 422.886 94.5774C417.364 90.5226 414.259 85.2168 413.568 78.6601H431.815C432.419 81.2483 433.885 83.3188 436.215 84.8717C438.544 86.3384 441.348 87.0717 444.626 87.0717C448.25 87.0717 450.967 86.4678 452.779 85.26C454.677 83.9659 455.626 82.3698 455.626 80.4718C455.626 79.0052 454.936 77.8405 453.556 76.9778C452.175 76.0288 449.803 75.3386 446.438 74.9073C445.23 74.7347 443.548 74.4759 441.391 74.1308C439.321 73.7857 437.638 73.4838 436.344 73.225C432.721 72.5348 429.399 71.4133 426.38 69.8604C423.447 68.3075 421.117 66.2369 419.392 63.6488C417.666 60.9743 416.804 57.7391 416.804 53.9431C416.804 48.1629 418.96 43.2885 423.274 39.32C427.588 35.3515 433.885 33.3672 442.168 33.3672C450.622 33.3672 457.265 35.222 462.097 38.9317C466.928 42.5552 469.645 47.6884 470.249 54.3313H453.038C452.779 51.9157 451.614 50.104 449.544 48.8962C447.473 47.6884 445.058 47.0845 442.297 47.0845C439.019 47.0845 436.517 47.6453 434.791 48.7668C433.152 49.8883 432.333 51.3118 432.333 53.0373C432.333 55.798 435.05 57.6528 440.485 58.6018C441.262 58.6881 442.34 58.8606 443.721 59.1195C445.187 59.292 446.654 59.5077 448.12 59.7665C449.673 59.939 450.881 60.1116 451.744 60.2841C454.246 60.6292 456.704 61.2331 459.12 62.0959C461.622 62.8723 463.822 63.9507 465.72 65.3311C467.704 66.7114 469.257 68.5231 470.379 70.7662C471.5 72.923 472.061 75.6406 472.061 78.9189C472.061 83.2326 470.983 87.0285 468.826 90.3069C466.669 93.5852 463.52 96.1303 459.379 97.942C455.238 99.7537 450.105 100.66 443.979 100.66Z" fill="#0B332C"/>
<path d="M377.447 100.66C370.976 100.66 365.11 99.2361 359.847 96.3891C354.671 93.5421 350.53 89.5736 347.424 84.4835C344.404 79.3934 342.895 73.5701 342.895 67.0134C342.895 60.3704 344.404 54.547 347.424 49.5432C350.53 44.4532 354.714 40.4846 359.976 37.6377C365.239 34.7907 371.062 33.3672 377.447 33.3672C383.917 33.3672 389.74 34.7907 394.917 37.6377C400.179 40.4846 404.32 44.4532 407.34 49.5432C410.446 54.547 411.999 60.3704 411.999 67.0134C411.999 73.5701 410.446 79.3934 407.34 84.4835C404.32 89.5736 400.179 93.5421 394.917 96.3891C389.74 99.2361 383.917 100.66 377.447 100.66ZM377.447 85.26C380.38 85.26 383.054 84.5698 385.47 83.1894C387.972 81.8091 389.956 79.7817 391.423 77.1072C392.889 74.4328 393.623 71.0682 393.623 67.0134C393.623 62.9586 392.846 59.594 391.293 56.9195C389.827 54.2451 387.886 52.2177 385.47 50.8373C383.054 49.457 380.423 48.7668 377.576 48.7668C374.643 48.7668 371.925 49.457 369.423 50.8373C367.008 52.2177 365.023 54.2451 363.47 56.9195C362.004 59.594 361.271 62.9586 361.271 67.0134C361.271 71.0682 362.004 74.4328 363.47 77.1072C364.937 79.7817 366.878 81.8091 369.294 83.1894C371.796 84.5698 374.513 85.26 377.447 85.26Z" fill="#0B332C"/>
<path d="M307.787 100.657C303.042 100.657 298.901 99.7939 295.364 98.0685C291.913 96.343 289.066 93.8843 286.823 90.6922V99.1037H268.965V5.92969H286.823V43.8464C288.894 40.9994 291.568 38.5406 294.847 36.4701C298.211 34.3995 302.525 33.3643 307.787 33.3643C313.826 33.3643 319.218 34.8309 323.963 37.7642C328.708 40.6974 332.418 44.7091 335.093 49.7991C337.853 54.8892 339.234 60.6694 339.234 67.1399C339.234 73.524 337.853 79.2611 335.093 84.3512C332.418 89.4412 328.708 93.4529 323.963 96.3862C319.218 99.2331 313.826 100.657 307.787 100.657ZM303.646 85.1276C307.097 85.1276 310.117 84.3512 312.705 82.7983C315.379 81.1591 317.45 79.0023 318.916 76.3279C320.469 73.6534 321.246 70.5908 321.246 67.1399C321.246 63.6027 320.469 60.4538 318.916 57.6931C317.45 54.9323 315.379 52.7755 312.705 51.2226C310.117 49.6697 307.097 48.8933 303.646 48.8933C300.282 48.8933 297.262 49.6697 294.588 51.2226C292 52.7755 289.972 54.9323 288.506 57.6931C287.039 60.3675 286.306 63.4733 286.306 67.0105C286.306 70.5476 287.039 73.6534 288.506 76.3279C289.972 79.0023 292 81.1591 294.588 82.7983C297.262 84.3512 300.282 85.1276 303.646 85.1276Z" fill="#0B332C"/>
<path d="M135.02 6.75865L114.712 59.0743L186.601 27.916C193.325 33.0506 199.426 38.9605 204.769 45.5123L131.511 77.2633L227.877 98.3893C228.563 103.297 228.918 108.31 228.918 113.406C228.918 116.455 228.791 119.475 228.542 122.46L130.061 100.869L207.208 178.195C202.491 184.431 197.11 190.137 191.17 195.207L113.622 117.48L135.962 219.931C131.206 220.574 126.351 220.906 121.418 220.906C118.303 220.906 115.218 220.774 112.17 220.514L89.9946 118.817L55.5015 198.332C48.8894 193.192 42.8936 187.298 37.6433 180.777L71.8352 101.954L14.4571 124.24C14.1005 120.677 13.918 117.063 13.918 113.406C13.918 108.524 14.2433 103.718 14.8738 99.0082L72.7219 76.5387L39.6905 43.5686C44.7671 37.6334 50.4788 32.2577 56.7206 27.547L89.2688 60.0351L110.052 6.49997C113.787 6.10751 117.579 5.90625 121.418 5.90625C126.026 5.90625 130.565 6.19616 135.02 6.75865Z" fill="#00DC5F"/>
</svg>
